<svg xmlns="http://www.w3.org/2000/svg" xmlns:xlink="http://www.w3.org/1999/xlink" version="1.1" shape-rendering="crispEdges" viewBox="0 0 37 37"><rect x="0" y="0" height="37" width="37" fill="#FFF"/><rect x="4" y="4" height="1" width="7" fill="#000"/><rect x="13" y="4" height="1" width="1" fill="#000"/><rect x="16" y="4" height="1" width="4" fill="#000"/><rect x="21" y="4" height="3" width="1" fill="#000"/><rect x="23" y="4" height="1" width="1" fill="#000"/><rect x="26" y="4" height="1" width="7" fill="#000"/><rect x="4" y="5" height="6" width="1" fill="#000"/><rect x="10" y="5" height="6" width="1" fill="#000"/><rect x="12" y="5" height="2" width="1" fill="#000"/><rect x="15" y="5" height="2" width="2" fill="#000"/><rect x="19" y="5" height="1" width="2" fill="#000"/><rect x="24" y="5" height="1" width="1" fill="#000"/><rect x="26" y="5" height="6" width="1" fill="#000"/><rect x="32" y="5" height="6" width="1" fill="#000"/><rect x="6" y="6" height="3" width="3" fill="#000"/><rect x="13" y="6" height="2" width="2" fill="#000"/><rect x="18" y="6" height="2" width="1" fill="#000"/><rect x="20" y="6" height="5" width="1" fill="#000"/><rect x="22" y="6" height="6" width="1" fill="#000"/><rect x="28" y="6" height="3" width="3" fill="#000"/><rect x="15" y="7" height="1" width="1" fill="#000"/><rect x="19" y="7" height="1" width="1" fill="#000"/><rect x="12" y="8" height="4" width="1" fill="#000"/><rect x="13" y="9" height="1" width="1" fill="#000"/><rect x="15" y="9" height="1" width="1" fill="#000"/><rect x="17" y="9" height="1" width="3" fill="#000"/><rect x="23" y="9" height="1" width="2" fill="#000"/><rect x="5" y="10" height="1" width="5" fill="#000"/><rect x="14" y="10" height="1" width="1" fill="#000"/><rect x="16" y="10" height="2" width="1" fill="#000"/><rect x="18" y="10" height="1" width="1" fill="#000"/><rect x="24" y="10" height="1" width="1" fill="#000"/><rect x="27" y="10" height="1" width="5" fill="#000"/><rect x="13" y="11" height="1" width="1" fill="#000"/><rect x="19" y="11" height="2" width="1" fill="#000"/><rect x="21" y="11" height="1" width="1" fill="#000"/><rect x="4" y="12" height="3" width="2" fill="#000"/><rect x="7" y="12" height="1" width="1" fill="#000"/><rect x="10" y="12" height="1" width="2" fill="#000"/><rect x="14" y="12" height="3" width="1" fill="#000"/><rect x="17" y="12" height="1" width="2" fill="#000"/><rect x="24" y="12" height="2" width="1" fill="#000"/><rect x="26" y="12" height="1" width="3" fill="#000"/><rect x="30" y="12" height="1" width="2" fill="#000"/><rect x="6" y="13" height="3" width="1" fill="#000"/><rect x="8" y="13" height="3" width="1" fill="#000"/><rect x="15" y="13" height="1" width="1" fill="#000"/><rect x="17" y="13" height="5" width="1" fill="#000"/><rect x="26" y="13" height="2" width="2" fill="#000"/><rect x="29" y="13" height="1" width="2" fill="#000"/><rect x="32" y="13" height="1" width="1" fill="#000"/><rect x="7" y="14" height="1" width="1" fill="#000"/><rect x="9" y="14" height="1" width="5" fill="#000"/><rect x="23" y="14" height="4" width="1" fill="#000"/><rect x="25" y="14" height="1" width="1" fill="#000"/><rect x="28" y="14" height="1" width="2" fill="#000"/><rect x="5" y="15" height="1" width="1" fill="#000"/><rect x="12" y="15" height="1" width="1" fill="#000"/><rect x="20" y="15" height="2" width="1" fill="#000"/><rect x="27" y="15" height="2" width="1" fill="#000"/><rect x="29" y="15" height="1" width="2" fill="#000"/><rect x="4" y="16" height="5" width="1" fill="#000"/><rect x="9" y="16" height="1" width="3" fill="#000"/><rect x="16" y="16" height="5" width="1" fill="#000"/><rect x="19" y="16" height="1" width="1" fill="#000"/><rect x="21" y="16" height="1" width="1" fill="#000"/><rect x="25" y="16" height="2" width="2" fill="#000"/><rect x="5" y="17" height="1" width="2" fill="#000"/><rect x="8" y="17" height="1" width="2" fill="#000"/><rect x="11" y="17" height="2" width="2" fill="#000"/><rect x="14" y="17" height="1" width="2" fill="#000"/><rect x="29" y="17" height="2" width="3" fill="#000"/><rect x="5" y="18" height="2" width="1" fill="#000"/><rect x="9" y="18" height="1" width="2" fill="#000"/><rect x="18" y="18" height="1" width="1" fill="#000"/><rect x="20" y="18" height="1" width="1" fill="#000"/><rect x="24" y="18" height="1" width="1" fill="#000"/><rect x="32" y="18" height="1" width="1" fill="#000"/><rect x="14" y="19" height="2" width="1" fill="#000"/><rect x="17" y="19" height="2" width="1" fill="#000"/><rect x="19" y="19" height="1" width="1" fill="#000"/><rect x="21" y="19" height="1" width="3" fill="#000"/><rect x="27" y="19" height="1" width="1" fill="#000"/><rect x="29" y="19" height="2" width="1" fill="#000"/><rect x="31" y="19" height="1" width="1" fill="#000"/><rect x="7" y="20" height="1" width="7" fill="#000"/><rect x="15" y="20" height="1" width="1" fill="#000"/><rect x="20" y="20" height="1" width="2" fill="#000"/><rect x="23" y="20" height="1" width="3" fill="#000"/><rect x="6" y="21" height="1" width="1" fill="#000"/><rect x="8" y="21" height="1" width="2" fill="#000"/><rect x="12" y="21" height="1" width="2" fill="#000"/><rect x="18" y="21" height="1" width="1" fill="#000"/><rect x="20" y="21" height="2" width="1" fill="#000"/><rect x="22" y="21" height="3" width="1" fill="#000"/><rect x="25" y="21" height="4" width="1" fill="#000"/><rect x="27" y="21" height="2" width="1" fill="#000"/><rect x="32" y="21" height="5" width="1" fill="#000"/><rect x="4" y="22" height="1" width="1" fill="#000"/><rect x="7" y="22" height="2" width="1" fill="#000"/><rect x="10" y="22" height="1" width="2" fill="#000"/><rect x="13" y="22" height="2" width="2" fill="#000"/><rect x="17" y="22" height="1" width="1" fill="#000"/><rect x="21" y="22" height="4" width="1" fill="#000"/><rect x="24" y="22" height="1" width="1" fill="#000"/><rect x="29" y="22" height="5" width="1" fill="#000"/><rect x="31" y="22" height="1" width="1" fill="#000"/><rect x="6" y="23" height="2" width="1" fill="#000"/><rect x="11" y="23" height="1" width="1" fill="#000"/><rect x="15" y="23" height="1" width="2" fill="#000"/><rect x="18" y="23" height="4" width="1" fill="#000"/><rect x="28" y="23" height="8" width="1" fill="#000"/><rect x="4" y="24" height="1" width="1" fill="#000"/><rect x="8" y="24" height="1" width="1" fill="#000"/><rect x="10" y="24" height="1" width="1" fill="#000"/><rect x="13" y="24" height="5" width="1" fill="#000"/><rect x="20" y="24" height="1" width="1" fill="#000"/><rect x="24" y="24" height="6" width="1" fill="#000"/><rect x="26" y="24" height="1" width="2" fill="#000"/><rect x="30" y="24" height="1" width="2" fill="#000"/><rect x="12" y="25" height="2" width="1" fill="#000"/><rect x="17" y="25" height="1" width="1" fill="#000"/><rect x="4" y="26" height="1" width="7" fill="#000"/><rect x="14" y="26" height="2" width="1" fill="#000"/><rect x="20" y="26" height="1" width="1" fill="#000"/><rect x="22" y="26" height="1" width="1" fill="#000"/><rect x="26" y="26" height="1" width="1" fill="#000"/><rect x="30" y="26" height="2" width="2" fill="#000"/><rect x="4" y="27" height="6" width="1" fill="#000"/><rect x="10" y="27" height="6" width="1" fill="#000"/><rect x="16" y="27" height="2" width="2" fill="#000"/><rect x="19" y="27" height="2" width="1" fill="#000"/><rect x="32" y="27" height="1" width="1" fill="#000"/><rect x="6" y="28" height="3" width="3" fill="#000"/><rect x="15" y="28" height="1" width="1" fill="#000"/><rect x="18" y="28" height="1" width="1" fill="#000"/><rect x="20" y="28" height="1" width="2" fill="#000"/><rect x="25" y="28" height="1" width="3" fill="#000"/><rect x="31" y="28" height="2" width="1" fill="#000"/><rect x="12" y="29" height="1" width="1" fill="#000"/><rect x="16" y="29" height="1" width="1" fill="#000"/><rect x="21" y="29" height="1" width="2" fill="#000"/><rect x="26" y="29" height="2" width="1" fill="#000"/><rect x="13" y="30" height="1" width="3" fill="#000"/><rect x="17" y="30" height="1" width="2" fill="#000"/><rect x="20" y="30" height="1" width="2" fill="#000"/><rect x="23" y="30" height="3" width="1" fill="#000"/><rect x="25" y="30" height="2" width="1" fill="#000"/><rect x="27" y="30" height="1" width="1" fill="#000"/><rect x="29" y="30" height="1" width="1" fill="#000"/><rect x="32" y="30" height="1" width="1" fill="#000"/><rect x="12" y="31" height="2" width="1" fill="#000"/><rect x="15" y="31" height="1" width="1" fill="#000"/><rect x="17" y="31" height="1" width="1" fill="#000"/><rect x="19" y="31" height="1" width="1" fill="#000"/><rect x="21" y="31" height="1" width="2" fill="#000"/><rect x="24" y="31" height="2" width="1" fill="#000"/><rect x="31" y="31" height="2" width="1" fill="#000"/><rect x="5" y="32" height="1" width="5" fill="#000"/><rect x="16" y="32" height="1" width="1" fill="#000"/><rect x="20" y="32" height="1" width="2" fill="#000"/><rect x="26" y="32" height="1" width="1" fill="#000"/></svg>